Motion_pl02
version=1
nRows=16
nColumns=43
inDegrees=yes
endheader
time	pelvis_tilt	pelvis_list	pelvis_rotation	pelvis_tx	pelvis_ty	pelvis_tz	hip_flexion_r	hip_adduction_r	hip_rotation_r	knee_angle_r	ankle_angle_r	subtalar_angle_r	mtp_angle_r	hip_flexion_l	hip_adduction_l	hip_rotation_l	knee_angle_l	ankle_angle_l	subtalar_angle_l	mtp_angle_l	lumbar_extension	lumbar_bending	lumbar_rotation	neck_flexion	neck_lateral_bending	neck_rotation	arm_flex_r	arm_add_r	arm_rot_r	elbow_flex_r	pro_sup_r	wrist_flex_r	wrist_dev_r	hand_finger_flex_r	arm_flex_l	arm_add_l	arm_rot_l	elbow_flex_l	pro_sup_l	wrist_flex_l	wrist_dev_l	hand_finger_flex_l
      1.09000000	      1.15808981	      0.53417331	     90.56518804	     -0.02631252	      0.60336850	      0.47935805	     74.77735810	    -10.85758019	     -4.86542883	   -106.07875872	     24.07951835	     -1.06694936	      1.50640990	     76.04688851	     -6.88134200	     -1.05809234	   -106.13317850	     26.45524425	    -10.19284831	    -13.71689842	    -48.20233333	     -2.29350113	      3.47624272	     10.72170058	      1.20047645	     -0.97710917	    -32.92090602	    -15.10976481	    -45.70134614	     50.68041482	     90.30191765	    -29.47128478	    -23.98745154	     43.90961454	    -29.81998880	    -18.25340518	    -33.74656722	     49.55304748	     94.56735286	    -41.43923680	    -12.86867134	     90.00021046
      1.09250000	      1.24037282	      0.52282344	     90.59110489	     -0.02644694	      0.59693042	      0.47791783	     75.45547802	    -10.83161495	     -4.75698991	   -107.16990199	     24.41108457	     -1.20840055	      1.61060887	     76.65900533	     -6.83840361	     -0.90120915	   -107.15708472	     27.03948441	    -10.42523485	    -13.58513066	    -48.78063929	     -2.23440962	      3.41439964	     11.52517313	      1.26919139	     -0.95218638	    -31.51174312	    -15.82743610	    -45.11759547	     51.91494343	     90.50723639	    -29.37971839	    -24.24787645	     44.01902528	    -28.43101815	    -18.68735459	    -32.85053532	     51.11105778	     94.75157777	    -41.21093364	    -13.14085463	     90.00021046
      1.09500000	      1.29999188	      0.53138608	     90.62376089	     -0.02663312	      0.59083458	      0.47658573	     76.07704350	    -10.83564204	     -4.64506556	   -108.20515063	     24.78873999	     -1.35105815	      1.73119597	     77.18392250	     -6.82178706	     -0.82658320	   -108.05955404	     27.67430627	    -10.58516607	    -13.43196675	    -49.42192952	     -2.19370324	      3.33071101	     12.51585539	      1.40933499	     -0.90999245	    -30.07370003	    -16.59827711	    -44.46903059	     53.16125402	     90.73539629	    -29.36523154	    -24.48529171	     44.16438455	    -27.00068769	    -19.18339555	    -31.89429557	     52.67779584	     94.83315528	    -40.99471882	    -13.37926717	     90.00021046
      1.09750000	      1.17483877	      0.93532855	     90.61022136	     -0.02677778	      0.58594126	      0.47519389	     76.22556918	    -10.86294221	     -4.34770699	   -109.16520156	     25.14812140	     -1.39936476	      2.23633097	     77.13375542	     -6.82200005	     -0.94235833	   -108.92034767	     28.44105735	    -10.31577192	    -12.85287004	    -50.56975919	     -2.32665774	      3.04508322	     13.74506856	      1.56874503	     -0.75103040	    -28.49699994	    -17.40981181	    -43.56876258	     54.53821869	     90.80314176	    -30.23127543	    -24.55893732	     45.04322941	    -25.63614835	    -19.81859164	    -30.67281125	     54.39213856	     93.70892283	    -41.18955241	    -13.53926867	     90.00021046
      1.10000000	      1.26280812	      0.88612384	     90.64244973	     -0.02688037	      0.57982814	      0.47369766	     76.86182303	    -10.84490104	     -4.27770747	   -110.17040622	     25.56383384	     -1.53025919	      2.33888252	     77.73053140	     -6.83193918	     -0.83137149	   -109.86219737	     29.03634999	    -10.56122192	    -12.72653170	    -51.05304650	     -2.26842195	      2.96833987	     14.50677376	      1.69097677	     -0.72971408	    -27.13347591	    -18.27196982	    -42.78613059	     55.82796830	     91.00528880	    -30.13127665	    -24.82534673	     45.22039184	    -24.26155238	    -20.45396245	    -29.66394390	     55.94931786	     93.89433417	    -41.02973347	    -13.82660580	     90.00021046
      1.10250000	      1.25979881	      1.06702093	     90.65573823	     -0.02704943	      0.57462954	      0.47226492	     77.19133022	    -10.86505440	     -4.11861805	   -111.08791756	     26.00788285	     -1.54275528	      3.03443058	     77.96442834	     -6.90238043	     -0.85768178	   -110.70548422	     29.75913459	    -10.35661315	    -11.90625664	    -51.86980460	     -2.28274310	      2.79449242	     15.61344376	      1.88171582	     -0.61176281	    -25.64884952	    -19.28402879	    -41.48364666	     57.15978771	     90.34374031	    -31.67607510	    -24.99999983	     47.03933479	    -22.89016263	    -21.33182887	    -27.96111161	     57.54677125	     92.37611453	    -42.24879702	    -14.17856648	     90.00021046
      1.10500000	      1.34028188	      1.06503715	     90.69108079	     -0.02717944	      0.56865026	      0.47066652	     77.76732965	    -10.86628143	     -4.04547380	   -112.08727415	     26.34412541	     -1.64969568	      3.10876276	     78.54093320	     -6.94420253	     -0.76379347	   -111.69461162	     30.21107877	    -10.48681509	    -11.81086707	    -52.34204380	     -2.21654451	      2.69510529	     16.27938197	      1.98347681	     -0.55676416	    -24.36227547	    -20.19734465	    -40.70332583	     58.65887503	     90.57122165	    -31.55574249	    -24.99999983	     47.18988851	    -21.58839598	    -22.06884236	    -26.96387787	     59.19225528	     92.62548207	    -42.06243335	    -14.46065735	     90.00021046
      1.10750000	      1.41182217	      1.06346495	     90.73489409	     -0.02735305	      0.56292590	      0.46907630	     78.30693854	    -10.89528689	     -3.97892917	   -113.03867093	     26.73670981	     -1.73713842	      3.19045599	     79.08597874	     -7.02042113	     -0.70904581	   -112.63509737	     30.73079457	    -10.51775388	    -11.69952457	    -52.83003542	     -2.14935188	      2.58489400	     17.11525975	      2.14267628	     -0.46984426	    -23.04636819	    -21.16868540	    -39.84541328	     60.13686795	     90.76495386	    -31.52155219	    -24.99999983	     47.34664645	    -20.23376520	    -22.89987983	    -25.85247038	     60.76876614	     92.78751591	    -41.98459228	    -14.67257480	     90.00021046
      1.11000000	      1.42493541	      1.39286504	     90.74860518	     -0.02757081	      0.55818812	      0.46747032	     78.43906035	    -10.95284433	     -3.83339570	   -113.94942808	     27.22216743	     -1.50703301	      3.53662721	     79.16826511	     -7.19077214	     -0.71174390	   -113.54108174	     31.60071764	     -9.61912556	    -11.16889592	    -53.76999392	     -2.13053791	      2.51051866	     18.29039193	      2.25144825	     -0.33826106	    -21.74868623	    -22.24500160	    -38.56934349	     61.73585706	     89.99250866	    -33.31042072	    -24.99999983	     48.50466776	    -18.84382840	    -24.00588853	    -23.93467848	     62.57475165	     91.47411435	    -44.08614998	    -14.39696669	     90.00021046
      1.11250000	      1.53549269	      1.27278065	     90.84281268	     -0.02764972	      0.55244146	      0.46585796	     79.09355523	    -11.00616367	     -3.81894524	   -114.87141297	     27.67237576	     -1.60658745	      3.72427184	     79.85661681	     -7.28250105	     -0.60975581	   -114.45616894	     31.98468432	     -9.72354738	    -10.92309459	    -54.11994153	     -2.00502036	      2.42792218	     19.29580578	      2.54272598	     -0.16537230	    -20.44463360	    -23.21613293	    -37.64145434	     63.28443078	     89.78016152	    -33.89038845	    -24.99999983	     49.36320961	    -17.41064921	    -25.06924786	    -22.49918650	     64.01794530	     91.38619035	    -44.73475061	    -14.58099076	     90.00021046
      1.11500000	      1.61526847	      1.35427601	     90.85851230	     -0.02790634	      0.54693505	      0.46407099	     79.50557274	    -11.04345741	     -3.75658691	   -115.82299114	     27.95233447	     -1.66349862	      3.77840669	     80.37940140	     -7.41431645	     -0.59202622	   -115.46200669	     32.35963060	     -9.78263982	    -10.84716960	    -54.53768644	     -1.91881825	      2.32117186	     19.63720356	      2.55267007	     -0.14085059	    -19.16414348	    -24.42420768	    -36.61214812	     64.73226471	     90.02057691	    -33.74647293	    -24.99999983	     49.53229066	    -16.10669958	    -26.08656728	    -21.29445993	     65.53976775	     91.65622996	    -44.62785272	    -14.78155708	     89.99284423
      1.11750000	      1.76165707	      1.47481950	     90.90668877	     -0.02811778	      0.54170535	      0.46236491	     79.83156721	    -11.11960547	     -3.79607396	   -116.72184518	     28.46362759	     -1.59913839	      4.11701660	     80.83227379	     -7.60303098	     -0.48277377	   -116.42624968	     32.86963467	     -9.47239686	    -10.32287029	    -55.07547345	     -1.77191999	      2.45624442	     20.43424332	      2.70240451	     -0.10660560	    -18.00381667	    -25.69562960	    -35.24291835	     66.29371385	     88.83480072	    -36.21947807	    -24.99999983	     51.97813217	    -14.55598244	    -27.51060040	    -18.94379963	     67.15909156	     90.98850973	    -47.30713720	    -14.06068460	     89.73771101
      1.12000000	      1.83565651	      1.49267289	     90.95037118	     -0.02826514	      0.53641765	      0.46074627	     80.31364719	    -11.16222517	     -3.72237739	   -117.61331872	     28.73439378	     -1.58983695	      4.16488881	     81.39391038	     -7.72763132	     -0.43642680	   -117.35113447	     33.21978093	     -9.41471986	    -10.25814524	    -55.45084863	     -1.66412379	      2.28978378	     20.99434349	      2.72028824	     -0.02029574	    -16.62759863	    -26.89259588	    -34.23142253	     67.79337019	     89.11509205	    -36.04221690	    -24.99999983	     52.09882368	    -13.17145708	    -28.67858797	    -17.72584513	     68.53451364	     91.35331341	    -47.12082312	    -14.23809651	     89.73284465
      1.12250000	      1.89843371	      1.53100015	     91.00289329	     -0.02857301	      0.53130189	      0.45910215	     80.73845851	    -11.29011238	     -3.61509403	   -118.48431938	     29.26918310	     -1.16047666	      4.32067213	     81.90040999	     -7.89160722	     -0.37965907	   -118.27377932	     33.89163072	     -8.68157655	    -10.03607116	    -55.87081684	     -1.54790728	      2.40779622	     21.78499587	      2.72368524	     -0.08391290	    -15.46673571	    -28.09783930	    -33.23299684	     69.33004542	     88.68733687	    -37.48219181	    -24.99999983	     52.95518610	    -11.43207340	    -30.09710653	    -15.58563003	     69.96417613	     91.72839611	    -48.79152275	    -13.23676549	     89.01989176
      1.12500000	      1.96990500	      1.43933033	     91.09023807	     -0.02877482	      0.52600148	      0.45760748	     81.31021118	    -11.42265177	     -3.57843425	   -119.32286116	     29.67459898	     -1.13132408	      4.38713683	     82.59167581	     -7.96861998	     -0.31528824	   -119.13650301	     34.20379710	     -8.54407604	     -9.97386965	    -56.14576430	     -1.43512723	      2.35915782	     22.54526883	      2.96478742	      0.17625925	    -14.14710217	    -29.24789805	    -32.36182385	     70.82553274	     88.74142486	    -37.76049566	    -24.99999983	     53.30637678	     -9.83236979	    -31.41736964	    -14.07596459	     71.35410244	     92.19635531	    -48.99582117	    -13.01199327	     89.07582496
      1.12750000	      2.05711576	      1.46385696	     91.10886378	     -0.02886235	      0.52081795	      0.45605682	     81.77733605	    -11.47449978	     -3.53419545	   -120.17381520	     29.91540539	     -1.12159314	      4.42275407	     83.18172124	     -8.13129148	     -0.26847470	   -120.04918417	     34.47522053	     -8.57647407	     -9.93815083	    -56.45062315	     -1.32473588	      2.23999122	     22.91939124	      2.93523966	      0.17051062	    -12.70912193	    -30.54883742	    -31.29054930	     72.26272832	     88.99561425	    -37.59451056	    -24.99999983	     53.42100991	     -8.35286810	    -32.71211729	    -12.80740775	     72.68331014	     92.60363730	    -48.84350748	    -13.07315658	     89.14574810
